<svg fill="#000000" width="16px" height="16px" viewBox="0 0 1.28 1.28" xmlns="http://www.w3.org/2000/svg">
    <g id="Outline">
        <g data-name="Outline" id="Outline-2">
            <path d="M0.72 0.859a0.02 0.02 0 0 0 0.04 0V0.78h0.06a0.02 0.02 0 0 0 0 -0.04h-0.06v-0.16a0.16 0.16 0 0 0 -0.32 0 0.02 0.02 0 0 0 0.04 0 0.12 0.12 0 0 1 0.24 0Z"/>
            <path d="M0.64 0.04a0.6 0.6 0 1 0 0.6 0.6A0.601 0.601 0 0 0 0.64 0.04Zm0 1.16a0.56 0.56 0 1 1 0.56 -0.56 0.561 0.561 0 0 1 -0.56 0.56Z"/>
            <path d="M0.993 0.336a0.064 0.064 0 1 0 -0.038 0.058 0.4 0.4 0 0 1 -0.501 0.6 0.02 0.02 0 0 0 -0.019 0.035 0.44 0.44 0 0 0 0.549 -0.662 0.063 0.063 0 0 0 0.009 -0.031Zm-0.087 0a0.023 0.023 0 1 1 0.023 0.023 0.023 0.023 0 0 1 -0.023 -0.023Z"/>
            <path d="M0.336 0.881a0.063 0.063 0 0 0 -0.014 0.002A0.396 0.396 0 0 1 0.24 0.64a0.4 0.4 0 0 1 0.4 -0.4 0.396 0.396 0 0 1 0.169 0.037 0.02 0.02 0 0 0 0.017 -0.036A0.436 0.436 0 0 0 0.64 0.2a0.441 0.441 0 0 0 -0.44 0.44 0.435 0.435 0 0 0 0.088 0.263 0.063 0.063 0 1 0 0.048 -0.023Zm0 0.087a0.023 0.023 0 1 1 0.023 -0.023 0.023 0.023 0 0 1 -0.023 0.023Z"/>
        </g>
    </g>
</svg>
