<svg width="16" height="17" viewBox="0 0 16 17" fill="none" xmlns="http://www.w3.org/2000/svg">
    <g clip-path="url(#clip0_78_1549)">
        <path d="M7.99967 1.83337C5.41967 1.83337 3.33301 3.92004 3.33301 6.50004C3.33301 10 7.99967 15.1667 7.99967 15.1667C7.99967 15.1667 12.6663 10 12.6663 6.50004C12.6663 3.92004 10.5797 1.83337 7.99967 1.83337ZM4.66634 6.50004C4.66634 4.66004 6.15967 3.16671 7.99967 3.16671C9.83967 3.16671 11.333 4.66004 11.333 6.50004C11.333 8.42004 9.41301 11.2934 7.99967 13.0867C6.61301 11.3067 4.66634 8.40004 4.66634 6.50004Z" fill="#1B1B25"/>
        <path d="M7.99967 8.16671C8.92015 8.16671 9.66634 7.42052 9.66634 6.50004C9.66634 5.57957 8.92015 4.83337 7.99967 4.83337C7.0792 4.83337 6.33301 5.57957 6.33301 6.50004C6.33301 7.42052 7.0792 8.16671 7.99967 8.16671Z" fill="#1B1B25"/>
    </g>
    <defs>
        <clipPath id="clip0_78_1549">
            <rect width="16" height="16" fill="white" transform="translate(0 0.5)"/>
        </clipPath>
    </defs>
</svg>
